<svg width="103" height="20" viewBox="0 0 103 20" fill="none" xmlns="http://www.w3.org/2000/svg">
<path d="M7.68 18.364C5.632 18.364 4.608 18.1933 4.608 17.852C4.608 17.66 4.768 17.564 5.088 17.564H5.6C5.68533 17.5853 5.77067 17.596 5.856 17.596C5.96267 17.596 6.06933 17.596 6.176 17.596C8.33067 17.596 10.336 17.2653 12.192 16.604C14.0907 15.9213 15.648 15.0893 16.864 14.108C18.1013 13.084 19.072 11.996 19.776 10.844C20.5013 9.67067 20.864 8.56133 20.864 7.516C20.864 5.87333 20.2133 4.572 18.912 3.612C18.1653 3.05733 17.3653 2.67333 16.512 2.46C15.68 2.24667 14.8053 2.14 13.888 2.14H13.664C12.2133 2.14 10.4533 2.396 8.384 2.908C6.336 3.42 3.98933 4.16667 1.344 5.148C0.896 5.148 0.672 4.81733 0.672 4.156C0.672 3.94267 0.768 3.79333 0.96 3.708C1.06667 3.66533 1.248 3.60133 1.504 3.516C1.76 3.40933 2.18667 3.27067 2.784 3.1C4.704 2.524 6.54933 2.09733 8.32 1.82C10.0907 1.52133 11.7547 1.372 13.312 1.372C15.808 1.372 17.8773 1.96933 19.52 3.164C21.1413 4.33733 21.952 5.92667 21.952 7.932C21.952 9.148 21.6 10.3747 20.896 11.612C20.2133 12.8493 19.264 13.9693 18.048 14.972C16.832 15.996 15.3173 16.8067 13.504 17.404C11.6907 18.044 9.74933 18.364 7.68 18.364ZM3.904 19.836C3.56267 19.836 3.28533 19.6333 3.072 19.228C2.85867 18.844 2.752 18.2787 2.752 17.532C2.752 14.908 4.24533 10.9613 7.232 5.692C7.232 5.60667 7.33867 5.38267 7.552 5.02C7.78667 4.65733 7.97867 4.33733 8.128 4.06C8.40533 3.52667 8.66133 3.26 8.896 3.26C9.13067 3.26 9.39733 3.324 9.696 3.452C9.99467 3.55867 10.144 3.676 10.144 3.804C9.86667 4.27333 9.57867 4.74267 9.28 5.212C9.00267 5.68133 8.71467 6.15067 8.416 6.62C5.152 12.2733 3.52 16.1347 3.52 18.204C3.52 18.46 3.59467 18.7693 3.744 19.132C3.89333 19.4947 3.968 19.7187 3.968 19.804L3.904 19.836ZM25.0667 17.756C24.6401 17.756 24.2454 17.564 23.8827 17.18C23.5414 16.7747 23.3707 16.2627 23.3707 15.644C23.3707 15.0253 23.7441 14.0653 24.4907 12.764C25.2374 11.484 26.1547 10.332 27.2427 9.308C28.3094 8.30533 29.2267 7.804 29.9947 7.804H30.3147C31.1041 7.804 31.7761 7.964 32.3307 8.284C32.8854 8.58267 33.1627 8.988 33.1627 9.5C33.1627 9.73467 33.0667 9.852 32.8747 9.852C32.8107 9.852 32.7787 9.82 32.7787 9.756C32.4374 8.96667 31.9147 8.572 31.2107 8.572C29.9947 8.572 28.6081 9.57467 27.0507 11.58C25.4934 13.5427 24.7147 15.0573 24.7147 16.124C24.7147 16.5293 24.8214 16.732 25.0347 16.732C25.9947 16.732 28.0107 14.5667 31.0827 10.236C31.0614 10.2573 31.0721 10.2573 31.1147 10.236C31.1787 10.1933 31.2321 10.172 31.2747 10.172C31.3814 10.172 31.6054 10.2787 31.9467 10.492C32.2881 10.684 32.4587 10.8547 32.4587 11.004C32.4587 11.004 32.4161 11.0787 32.3307 11.228C32.2454 11.356 32.1387 11.5587 32.0107 11.836C31.6694 12.5613 31.4027 13.276 31.2107 13.98C31.0401 14.6627 30.9547 15.26 30.9547 15.772C30.9547 16.9027 31.2321 17.468 31.7867 17.468L32.1067 17.404L32.1707 17.436C32.1707 17.628 31.9041 17.724 31.3707 17.724C30.8587 17.724 30.4321 17.4893 30.0907 17.02C29.7707 16.5293 29.6107 15.8787 29.6107 15.068C29.6107 14.2787 29.7494 13.404 30.0267 12.444C30.0054 12.508 29.9307 12.6253 29.8027 12.796C29.6747 12.9667 29.4721 13.2653 29.1947 13.692C27.4454 16.4013 26.0694 17.756 25.0667 17.756ZM36.247 18.236C35.7137 18.236 35.2443 18.14 34.839 17.948C34.455 17.756 34.263 17.5747 34.263 17.404C36.7163 16.892 37.943 16.2733 37.943 15.548C37.943 15.3987 37.655 15.068 37.079 14.556C35.9697 13.5747 35.415 12.476 35.415 11.26C35.415 10.3853 35.959 9.52133 37.047 8.668C38.1777 7.772 39.2017 7.324 40.119 7.324C40.2683 7.324 40.567 7.548 41.015 7.996C41.463 8.444 41.687 8.732 41.687 8.86C41.687 8.96667 41.6337 9.02 41.527 9.02C41.2923 8.97733 41.1003 8.94533 40.951 8.924C40.8017 8.88133 40.695 8.86 40.631 8.86C39.671 8.86 38.679 9.212 37.655 9.916C36.6523 10.62 36.151 11.3347 36.151 12.06C36.151 12.188 36.6523 12.8387 37.655 14.012C38.6577 15.1427 39.159 15.9213 39.159 16.348C39.159 16.7747 38.8603 17.1907 38.263 17.596C37.943 17.8093 37.6017 17.9693 37.239 18.076C36.8977 18.1827 36.567 18.236 36.247 18.236ZM42.779 18.684C42.651 18.684 42.5337 18.6307 42.427 18.524C41.2963 17.3293 40.731 16.6787 40.731 16.572C40.731 16.444 40.795 16.38 40.923 16.38H40.987C41.563 16.0173 42.043 15.6973 42.427 15.42C42.619 14.6947 42.875 13.8627 43.195 12.924C43.5363 11.9853 43.9203 11.0253 44.347 10.044L46.171 5.852C46.5763 4.91333 46.8857 4.11333 47.099 3.452C47.3337 2.76933 47.451 2.21467 47.451 1.788C47.451 1.31867 47.2483 1.084 46.843 1.084L45.723 1.308C45.6163 1.308 45.563 1.244 45.563 1.116C45.563 0.796 45.9683 0.636 46.779 0.636C47.5897 0.636 48.1977 0.785333 48.603 1.084C49.0083 1.36133 49.211 1.74533 49.211 2.236C49.211 2.684 48.731 3.88933 47.771 5.852L45.883 9.724L43.995 14.076C44.8697 13.308 45.7337 12.412 46.587 11.388C47.4617 10.3427 48.1123 9.51067 48.539 8.892C48.987 8.252 49.243 7.932 49.307 7.932H49.467C50.235 7.932 50.619 8.07067 50.619 8.348C50.619 8.32667 50.6083 8.32667 50.587 8.348C50.587 8.348 50.5977 8.35867 50.619 8.38V8.348C50.5977 8.30533 50.5443 8.36933 50.459 8.54C50.1603 9.07333 49.8723 9.67067 49.595 10.332C49.339 10.9933 49.0937 11.708 48.859 12.476C48.3897 13.9693 48.155 14.972 48.155 15.484C48.155 16.7853 48.379 17.436 48.827 17.436C48.9763 17.436 49.2857 17.2333 49.755 16.828C49.819 16.828 49.851 16.9133 49.851 17.084C49.851 17.6387 49.5417 17.916 48.923 17.916C48.3257 17.916 47.835 17.6067 47.451 16.988C47.067 16.3693 46.875 15.6547 46.875 14.844C46.875 13.9693 47.0777 12.988 47.483 11.9C46.8003 12.604 46.1177 13.2547 45.435 13.852C44.7737 14.428 44.1337 14.9613 43.515 15.452C43.0883 16.668 42.875 17.4893 42.875 17.916V18.076C43.067 18.204 43.163 18.3107 43.163 18.396C43.163 18.588 43.035 18.684 42.779 18.684ZM42.171 17.692C42.171 17.6493 42.1603 17.5853 42.139 17.5C42.139 17.436 42.139 17.3613 42.139 17.276C42.139 17.0627 42.171 16.7533 42.235 16.348C42.0003 16.476 41.8083 16.572 41.659 16.636C41.5097 16.7 41.4137 16.7427 41.371 16.764C41.4777 16.9133 41.595 17.0733 41.723 17.244C41.851 17.3933 42.0003 17.5427 42.171 17.692ZM53.5868 18.588C52.5414 18.588 51.6881 18.0653 51.0268 17.02C50.9628 16.9133 50.9628 16.828 51.0268 16.764C51.7094 17.2547 52.3601 17.5 52.9788 17.5C54.4081 17.5 55.7414 16.636 56.9788 14.908C58.2588 13.1373 58.8988 11.4093 58.8988 9.724C58.8988 9.06267 58.6748 8.732 58.2268 8.732C57.2881 8.732 56.2001 9.67067 54.9628 11.548C53.7041 13.4253 53.0748 14.8973 53.0748 15.964C53.0748 16.156 53.1494 16.412 53.2988 16.732C53.2988 16.8387 53.2134 16.8707 53.0428 16.828C52.8934 16.7853 52.7441 16.6573 52.5948 16.444C52.4454 16.2093 52.3708 15.9 52.3708 15.516C52.3708 14.9613 52.4881 14.2147 52.7228 13.276C52.9788 12.3373 53.3734 11.2493 53.9068 10.012L56.2428 4.636C56.7334 3.31333 56.9788 2.38533 56.9788 1.852C56.9788 1.404 56.7868 1.18 56.4028 1.18L55.2828 1.404C55.1334 1.404 55.0588 1.34 55.0588 1.212C55.0588 0.891999 55.4534 0.731998 56.2428 0.731998C57.0534 0.731998 57.6721 0.870665 58.0988 1.148C58.5468 1.42533 58.7708 1.82 58.7708 2.332C58.7708 2.82267 58.3548 3.88933 57.5228 5.532L55.8588 8.796C56.5201 8.32667 57.2988 8.092 58.1948 8.092C59.6668 8.092 60.4028 8.80667 60.4028 10.236C60.4028 11.8787 59.6134 13.6813 58.0348 15.644C56.4561 17.6067 54.9734 18.588 53.5868 18.588ZM64.1435 17.5C62.4155 17.5 61.5515 16.5933 61.5515 14.78C61.5515 14.0547 61.7115 13.2867 62.0315 12.476C62.3728 11.644 62.7888 10.972 63.2795 10.46C63.0448 10.0547 62.9275 9.55333 62.9275 8.956C62.9275 8.33733 63.1835 7.78267 63.6955 7.292C64.2075 6.78 64.8368 6.524 65.5835 6.524C66.9702 6.524 67.9088 7.24933 68.3995 8.7C69.4022 8.892 69.9035 9.12667 69.9035 9.404C69.9035 9.724 69.7968 9.884 69.5835 9.884L68.7835 9.756C68.8048 9.96933 68.8155 10.1613 68.8155 10.332C68.8368 10.5027 68.8475 10.652 68.8475 10.78C68.8475 12.5293 68.3995 14.0973 67.5035 15.484C66.6075 16.828 65.4875 17.5 64.1435 17.5ZM63.7275 10.172C65.1782 9.084 66.1808 8.54 66.7355 8.54H66.8315C66.5328 7.79333 65.9782 7.42 65.1675 7.42C64.8048 7.42 64.5062 7.548 64.2715 7.804C64.0368 8.03867 63.8662 8.32667 63.7595 8.668C63.6528 9.00933 63.5995 9.31867 63.5995 9.596C63.5995 9.852 63.6422 10.044 63.7275 10.172ZM64.1115 17.116C64.9862 17.116 65.8075 16.4333 66.5755 15.068C67.3435 13.6813 67.7275 12.3587 67.7275 11.1C67.7275 10.5453 67.6315 10.0973 67.4395 9.756C66.6502 9.884 65.7862 10.3853 64.8475 11.26C65.0608 11.4093 65.2315 11.484 65.3595 11.484C65.4875 11.4627 65.5622 11.452 65.5835 11.452C65.6902 11.452 65.7435 11.5053 65.7435 11.612C65.7435 11.7827 65.6048 11.868 65.3275 11.868C65.0928 11.868 64.8262 11.7933 64.5275 11.644C63.3968 12.9667 62.8315 14.2147 62.8315 15.388C62.8315 16.54 63.2582 17.116 64.1115 17.116ZM71.8043 17.756C71.3776 17.756 70.9829 17.564 70.6203 17.18C70.2789 16.7747 70.1083 16.2627 70.1083 15.644C70.1083 15.0253 70.4816 14.0653 71.2283 12.764C71.9749 11.484 72.8923 10.332 73.9803 9.308C75.0469 8.30533 75.9643 7.804 76.7323 7.804H77.0523C77.8416 7.804 78.5136 7.964 79.0683 8.284C79.6229 8.58267 79.9003 8.988 79.9003 9.5C79.9003 9.73467 79.8043 9.852 79.6123 9.852C79.5483 9.852 79.5163 9.82 79.5163 9.756C79.1749 8.96667 78.6523 8.572 77.9483 8.572C76.7323 8.572 75.3456 9.57467 73.7883 11.58C72.2309 13.5427 71.4523 15.0573 71.4523 16.124C71.4523 16.5293 71.5589 16.732 71.7723 16.732C72.7323 16.732 74.7483 14.5667 77.8203 10.236C77.7989 10.2573 77.8096 10.2573 77.8523 10.236C77.9163 10.1933 77.9696 10.172 78.0123 10.172C78.1189 10.172 78.3429 10.2787 78.6843 10.492C79.0256 10.684 79.1963 10.8547 79.1963 11.004C79.1963 11.004 79.1536 11.0787 79.0683 11.228C78.9829 11.356 78.8763 11.5587 78.7483 11.836C78.4069 12.5613 78.1403 13.276 77.9483 13.98C77.7776 14.6627 77.6923 15.26 77.6923 15.772C77.6923 16.9027 77.9696 17.468 78.5243 17.468L78.8443 17.404L78.9083 17.436C78.9083 17.628 78.6416 17.724 78.1083 17.724C77.5963 17.724 77.1696 17.4893 76.8283 17.02C76.5083 16.5293 76.3483 15.8787 76.3483 15.068C76.3483 14.2787 76.4869 13.404 76.7643 12.444C76.7429 12.508 76.6683 12.6253 76.5403 12.796C76.4123 12.9667 76.2096 13.2653 75.9323 13.692C74.1829 16.4013 72.8069 17.756 71.8043 17.756ZM82.1325 17.564C81.9405 17.564 81.7272 17.5107 81.4925 17.404C81.2578 17.2973 81.1405 17.1693 81.1405 17.02C81.1405 16.6573 81.4925 15.3773 82.1965 13.18C82.9005 10.9613 83.2525 9.29733 83.2525 8.188C83.2525 7.84667 83.1032 7.65467 82.8045 7.612C82.5058 7.56933 82.3565 7.50533 82.3565 7.42C82.3565 7.228 82.5165 7.132 82.8365 7.132C84.2658 7.132 84.9805 7.71867 84.9805 8.892C84.9805 9.23333 84.6285 10.492 83.9245 12.668C85.0765 10.7907 86.3565 9.5 87.7645 8.796C88.1272 8.028 88.6285 7.644 89.2685 7.644C89.8872 7.644 90.2285 7.69733 90.2925 7.804C90.2712 7.78267 90.2285 7.81467 90.1645 7.9C90.1005 7.98533 90.0258 8.08133 89.9405 8.188C89.5992 8.67867 89.3005 9.15867 89.0445 9.628C88.7885 10.076 88.6498 10.428 88.6285 10.684C88.6285 11.26 88.8312 11.612 89.2365 11.74C89.2792 11.7613 89.3218 11.772 89.3645 11.772C89.4285 11.772 89.4605 11.7933 89.4605 11.836C89.4605 12.0067 89.2472 12.092 88.8205 12.092C88.4152 12.092 88.0632 11.932 87.7645 11.612C87.5938 11.42 87.4765 11.2173 87.4125 11.004C87.3485 10.7693 87.3165 10.5453 87.3165 10.332C87.3165 9.99067 87.3698 9.68133 87.4765 9.404C86.9432 9.80933 86.4632 10.236 86.0365 10.684C85.6098 11.1107 85.2152 11.5373 84.8525 11.964C84.1698 12.8387 83.6898 13.6173 83.4125 14.3C83.1565 14.9613 82.9752 15.5267 82.8685 15.996C82.7405 16.508 82.6338 16.9027 82.5485 17.18C82.4632 17.436 82.3245 17.564 82.1325 17.564ZM97.229 18.684C96.269 18.684 95.789 17.916 95.789 16.38C95.789 15.4627 96.1303 13.8307 96.813 11.484C96.365 12.3587 95.9277 13.148 95.501 13.852C95.0957 14.5347 94.6583 15.1853 94.189 15.804C93.229 17.0627 92.4077 17.692 91.725 17.692C91.2983 17.692 90.861 17.4253 90.413 16.892C89.9863 16.3587 89.773 15.8787 89.773 15.452C89.773 14.108 90.4877 12.4973 91.917 10.62C93.3677 8.7 94.6583 7.74 95.789 7.74C96.109 7.74 96.4397 7.836 96.781 8.028C97.165 8.19867 97.357 8.40133 97.357 8.636C97.357 8.80667 97.261 8.892 97.069 8.892L96.429 8.54C95.7037 8.54 94.5837 9.61733 93.069 11.772C91.5757 13.9053 90.829 15.4093 90.829 16.284C90.829 16.604 90.9037 16.764 91.053 16.764C91.2663 16.764 91.6503 16.5293 92.205 16.06C92.7597 15.5907 93.5063 14.812 94.445 13.724C95.405 12.6147 96.3757 11.356 97.357 9.948C97.613 9.372 97.8903 8.71067 98.189 7.964C98.509 7.196 98.893 6.27867 99.341 5.212C99.3623 5.16933 99.437 4.97733 99.565 4.636C99.7143 4.29467 99.8743 3.91067 100.045 3.484C100.237 3.05733 100.397 2.684 100.525 2.364C100.653 2.044 100.717 1.87333 100.717 1.852C100.717 1.51067 100.504 1.34 100.077 1.34L98.989 1.564C98.8397 1.564 98.765 1.5 98.765 1.372C98.765 1.03067 99.245 0.859999 100.205 0.859999C101.677 0.859999 102.413 1.36133 102.413 2.364C102.413 2.684 101.752 4.19867 100.429 6.908C99.725 8.29467 99.213 9.32933 98.893 10.012C98.5943 10.6733 98.4343 11.0253 98.413 11.068C97.2823 13.564 96.717 15.548 96.717 17.02C96.717 17.8947 96.9303 18.332 97.357 18.332L98.317 17.98L98.413 18.012C98.413 18.1613 98.253 18.3107 97.933 18.46C97.6343 18.6093 97.3997 18.684 97.229 18.684Z" fill="white"/>
</svg>
